<svg id="Layer_1" data-name="Layer 1" xmlns="http://www.w3.org/2000/svg" viewBox="0 0 1280 181"><title>logo pudu</title><path d="M21,7c11.57,3.25,22.63,7.54,32.46,14.72A70.93,70.93,0,0,1,77.31,51C97,35.41,119.13,34.47,142.11,39.54c10.87,2.4,21.56,5.6,32.33,8.48a31.68,31.68,0,0,1,3.24,1.24c-10.1-1-20-2.73-29.86-2.68a338.34,338.34,0,0,0-40.24,2.55,32.28,32.28,0,0,0-27.6,37c3.44,23.2,18,45,44,48.27,16.54,2.12,26.05-1.15,35.87-16.46,6.5-10.16,14.58-19.3,21.78-29a9.47,9.47,0,0,0,1.3-5.07c.25-7.65.39-15.32.37-23,0-3.72,1.74-5.25,5.2-4.67,4.15.7,8.25,1.72,13.39,2.82-5.42,6.85-11.28,12.36-8.52,20.74,5.45-1.82,10.44-4.35,15.66-5A26.56,26.56,0,0,1,233.6,84a16.85,16.85,0,0,1,4.66,12.18c-.32,10.66-.34,21.34,0,32,.16,4.74-1.44,6.33-5.95,5.83-2.27-.24-4.59,0-7.38,0,.53-4.44,1.41-8.35,1.39-12.25,0-8.59,0-17.24-1-25.73-.84-7.1-13.65-12.6-20.8-9.3-5.17,2.37-9.93,5.18-9.94,12.26,0,11.39-.58,22.78-.93,34.62H182.54V103.06c-4.34,6.49-7.81,11.9-11.52,17.15-4.11,5.83-7.84,12.09-12.78,17.16-26.5,27.18-72.11,14.93-86-17.85a98.13,98.13,0,0,1-6.15-19.45c-3.12-16-12.7-27.53-24.32-37.88a72.85,72.85,0,0,0-7.08-5.54C22.82,48.49,12.26,39.39,10,24V7Z" transform="translate(-10 -7)"/><path d="M1290,27c-3,12.69-12,20.4-21.85,27.86a157.07,157.07,0,0,0-20.49,18.87,54.48,54.48,0,0,0-13.1,25.91c-3,14.07-8.66,27.18-18.62,38.12-7.84,8.61-17.63,13-28.9,14.14-16,1.64-31.2-1.26-45.07-9.7a23.51,23.51,0,0,1-5.74-5.4c-11.12-13.67-18.09-29.47-16-47,2.29-19.22,14.46-36.33,34.7-39.81-2.88,3.22-5.2,6.08-7.8,8.66-16.43,16.34-17,35-8.31,55.12,7.24,16.8,20.1,23.83,38.1,20.24a80.6,80.6,0,0,0,16.29-4.55,30.63,30.63,0,0,0,11.26-7.92c9.91-11.93,16-25.56,16.42-41.43.41-13.89-7.55-22.59-18.44-28.51-7.9-4.28-17-6.41-25.48-9.85,15.39,2.26,31.37,1.15,46,7.78,4-5.67,7.77-12.16,12.67-17.61,11-12.19,24.74-20,40.72-23.89A20.55,20.55,0,0,0,1279,7h11Z" transform="translate(-10 -7)"/><path d="M690,188c-6.7-26.43-2.46-51.8,7.82-76.75-5.34.29-10.34.38-15.29,1-1.13.13-2.07,1.94-3.1,3-5.38,5.41-10.49,11.13-16.23,16.13s-12.69,4.69-19.42,2.75c-5.3-1.53-8.53-5.25-9.13-11.21-1.86-18.72,12.49-38.66,34.52-37.4,5.57.32,10.54,2.29,13.26,6.75,2,3.34,1.9,8,2.89,12.85a74.38,74.38,0,0,0,9-.08c3.17-.36,4.28-2.44,4.83-5.82,2-12.09,3.75-24.31,7.19-36,1.72-5.85,6.42-11.1,10.65-15.85,2.27-2.54,6.39-3.44,9.85-5.16,5.09,17.11,1,33-14.4,58.19l33.09-11.45.61,1.49c-.26.24-.47.61-.78.71-23.89,7.75-37.5,25.16-45.62,48-5.65,15.87-7.35,32.36-8.74,48.95Zm-15.47-78.26c-3.37-4.79-6.7-8.72-9.09-13.15-2.85-5.28-8-6.4-11.12-1.33-3.37,5.47-6.64,11.26-8.44,17.36-1.23,4.15-.32,9.17.61,13.59.31,1.47,3.79,3.44,5.6,3.23A26.25,26.25,0,0,0,674.53,109.74Zm30.93-12.33c9-10.55,16.22-29.59,13.93-36.17C710.92,70.45,704.85,85.93,705.46,97.41Zm-29.78,5.29c.68-7.5-.49-9.23-7-10.08Z" transform="translate(-10 -7)"/><path d="M339.14,151.89h-13c4.18-21.87.47-43.25-1.86-64.69-.82-7.54-6.53-11.68-11.15-16.51-2.46-2.58-5.67-4.45-8.68-6.73,9.81-2.38,21.82,2.51,27.57,11.61,2.14,3.38,4.43,4.58,8.37,4.54,8.47-.08,17.05-.34,25.38.89,12.81,1.9,20.3,11,20.08,22.67-.3,16.1-6.44,24-20.77,26.32a98.85,98.85,0,0,1-12.42,1c-4.29.16-8.59,0-13.5,0Zm0-28.91c6.34,0,12.52.48,18.59-.12,7.5-.74,14.26-3.73,16-12,.9-4.25.08-8.89-.14-13.35-.17-3.24-2-5.21-5.31-5.47-8.6-.67-17.2-1.43-25.82-1.74-1.22,0-3.24,2-3.69,3.47C335.85,103.46,336.65,113.14,339.18,123Z" transform="translate(-10 -7)"/><path d="M910.05,64.12c12.27-.89,22.55,2.25,29.14,13.32a6.55,6.55,0,0,0,4.68,2.45c7,.26,14-.06,21,.16,8.42.27,15.82,2.66,21.59,9.55,10.9,13.06,4.9,34.72-11.43,39.27-5.06,1.41-10.48,1.69-15.76,2.06-4.61.33-9.25.07-14.58.07v20.91H931.73c4.4-21.52.61-42.69-1.6-63.93-.92-8.87-7.5-13.68-13.28-19A61.13,61.13,0,0,0,910.05,64.12Zm44.64,59.05c1.5,0,3,0,4.49,0,16.46-.11,23.9-9.88,20-25.85-.81-3.32-2.49-5-5.57-5.28-8.08-.73-16.19-1.17-24.27-1.92-3.19-.3-4.79,1.16-5.07,4-.6,5.93-1.4,11.89-1.29,17.82C943.22,123.17,943.46,123.17,954.69,123.17Z" transform="translate(-10 -7)"/><path d="M1094.45,59.71c5.41-1,9.73-1.91,14.09-2.54,3.14-.45,4.42,1.06,4.35,4.34-.14,6.82.37,13.66,0,20.46-.75,15.58,2.45,30.39,8,44.82.81,2.12,1.42,4.32,2.46,7.51-7.81-2.11-15.72,2.74-22.22-3.52-6.56,1-13.39,2.92-20.25,3.07-19,.4-31.51-17.87-25.13-35.84,2.58-7.28,8-11.78,15.28-12.82a185.76,185.76,0,0,1,26.7-1.44c3.52,0,5.39-1,5.11-4.13a46.49,46.49,0,0,0-2.64-11.84C1099.28,65.26,1097,63.23,1094.45,59.71ZM1088,91c-18.27-1-25.89,9.85-21.53,25.94.49,1.81,2.59,4.33,4.18,4.52,7.68.92,15.49,1.94,23.15,1.4s8.13-1.92,8.15-9.53a79.37,79.37,0,0,0-.34-10.47C1100.26,92.46,1098.46,91,1088,91Z" transform="translate(-10 -7)"/><path d="M302.36,106.81h-48.1c-.36,10.91,7.17,19.44,17.79,18.78,8.49-.53,16.84-3.22,25.24-5a38.27,38.27,0,0,0,4.55-1.62v9.37c-13,6-26.49,8.91-40.83,4.65-15.11-4.49-22.73-20.4-19.77-35.29C243.35,87.07,259.78,77,271,77.06a88.53,88.53,0,0,1,13.42,1C297.48,80,305.91,93.33,302.36,106.81ZM255.3,98.52h34.38c-1.56-8.71-6.29-12.2-16.07-12.17C262.2,86.39,256.75,89.93,255.3,98.52Z" transform="translate(-10 -7)"/><path d="M1052.72,133.62h-11.48c-.25-1.89-.48-3.6-.71-5.32-4,1.62-7.69,3.68-11.63,4.59a28.14,28.14,0,0,1-30.57-13.61c-.82-1.45-1.46-3.65-1-5.08,4.19-12,.11-24.12-12.28-33.12,2.59,0,4.24-.08,5.89,0,4.8.26,9.61.83,14.41.83,4.07,0,5.51.86,3.75,5.2a33.06,33.06,0,0,0-1,22.51,17.39,17.39,0,0,0,29.58,6.88c1.06-1.11,1.55-2.82,2.14-4.31a21.67,21.67,0,0,0,.29-2.47c2.74-10.84,2.32-20.6-9-27.28l24,1.46C1050.46,100.17,1048.69,116.52,1052.72,133.62Z" transform="translate(-10 -7)"/><path d="M489.17,104.6c-4.19,6.74-8.24,12.59-11.57,18.83-2.5,4.68-5.58,7.07-11,6.12a39.8,39.8,0,0,0-6.31-.05c-3.07-15.35-5.46-30.9-20-41.25,4.65,0,9.33-.25,13.94.2,1,.09,1.95,2.61,2.53,4.17,3.28,8.8,6.43,17.64,9.63,26.47l2.34.27c3.66-5.17,7.49-10.24,10.93-15.55a60.15,60.15,0,0,0,4.64-9.38c3-7,2.9-7,11.45-5.71,1.21,11.08,4.59,21.49,12.41,30.53,7.78-7.63,13.74-16.11,17-26.2,1.24-3.83,3-5.47,7-5,2.7.35,5.48.07,9,.07-12.66,11.09-19.92,24.57-26.46,38.58a5.66,5.66,0,0,1-4,2.63c-10.2.78-10.19.67-14.32-8.61C494.2,115.66,491.87,110.58,489.17,104.6Z" transform="translate(-10 -7)"/><path d="M591.31,113.16h-45c5.45,8.3,12.82,9.65,20.56,8.7,7.31-.89,14.49-2.92,22.14-4.53a10,10,0,0,1-5.91,8.5c-10.38,4.63-30.37,7.12-43.26-3.28-10.05-8.11-9.66-20.07,1.13-28,12.84-9.48,36.1-7.46,47,4.07C591.81,102.65,593,107.31,591.31,113.16Zm-13.16-7.54c-1.34-7.33-6-10.34-15.65-10.41s-14.57,3-16,10.62c9.65,0,19.24,0,28.83,0C576.22,105.82,577.17,105.7,578.15,105.62Z" transform="translate(-10 -7)"/><path d="M914.74,113H869.67c3.69,6.25,8.92,9.16,15,8.77,7.54-.47,15-2.34,22.47-3.67a43.45,43.45,0,0,0,4.54-1.32l1.31,1.47c-2.13,2.42-3.79,6-6.46,7.06-14,5.58-28.23,6.72-41.65-1.7-12-7.51-12.16-20.78-.81-29.2,12.4-9.19,35.13-7.92,46,2.71C914.4,101.33,916.52,106.37,914.74,113Zm-13.26-7.44c-1.33-7.27-5.76-10.19-15.56-10.36-10-.19-14.66,2.73-16.13,10.36Z" transform="translate(-10 -7)"/><path d="M417.18,129.56c-8.4-.16-16.34-2.57-22.95-8.55-7.86-7.1-7.47-18.44.83-25.08,13.1-10.48,35.92-10,47.57,1,7.28,6.88,7.41,16.87.16,23.76C435.73,127.42,427,129.4,417.18,129.56Zm.38-6.44c2.45-.38,4.92-.64,7.33-1.18,6.3-1.42,11.33-7.1,10.65-13.18-.79-7.12-3.41-11.85-11.5-12.87a46.18,46.18,0,0,0-12.86.21c-7.12,1.11-11.5,9-9.39,16C404.13,119.84,408.44,122.79,417.56,123.12Z" transform="translate(-10 -7)"/><path d="M810.12,80.27v9.44c7.87-.25,15.45-1,23-.58,7,.4,13.09,3.71,18,8.84a6.16,6.16,0,0,1,1.88,3.79c-.29,9-.84,18.07-1.33,27.46h-8.32c0-6.15.46-12.1-.1-18C842,99,838.32,95.63,826,95.29a31.55,31.55,0,0,0-9.78,1.6c-4.26,1.29-6.41,4.33-6.31,9,.17,7.65,0,15.3,0,23.26H799V80.27Z" transform="translate(-10 -7)"/><path d="M793.73,121.59v7.79c-9,0-18,.33-26.92-.14-4.74-.24-5.86-4.43-5.92-8.49-.13-8.13,0-16.27,0-24.83l-8-.73c-1.34-6.45-1.34-6.45,7.7-7.4.16-2.32.33-4.74.53-7.46h10.76c.19,2.4.39,4.8.63,7.76h22.67v7.42c-6.4,0-12.63-.11-18.86,0-3.27.09-5.42,2.07-5.39,5.37,0,5.07-.22,10.32,1,15.15,1.54,6.09,8.68,8.53,16.79,6.74C790.25,122.46,791.81,122.06,793.73,121.59Z" transform="translate(-10 -7)"/><path d="M607,129.27H594.24c1.6-7,4.69-14.07,4.33-20.92-.35-6.68-4.23-13.18-6.58-19.83h14.64c.21,2.13.42,4.2.55,5.52,7.25-1.58,14.45-3.18,21.66-4.7a20.07,20.07,0,0,1,3.67,0v6.75l-5.58.77c-2.13.3-4.3.45-6.39,1-13,3.14-13.55,3.89-13.54,17.14Z" transform="translate(-10 -7)"/></svg>